<svg width="237" height="237" viewBox="0 0 237 237" fill="none" xmlns="http://www.w3.org/2000/svg">
<g filter="url(#filter0_b_239_37)">
<rect width="236.608" height="236.608" rx="86" fill="url(#paint0_linear_239_37)"/>
</g>
<circle cx="118.073" cy="118.073" r="66.1409" stroke="url(#paint1_linear_239_37)" stroke-width="29"/>
<path d="M149.21 105.103C149.21 108.002 148.269 110.681 146.683 112.854L154.682 120.858C155.472 121.648 155.472 122.93 154.682 123.72C153.892 124.509 152.609 124.509 151.82 123.72L143.82 115.716C141.647 117.308 138.968 118.243 136.068 118.243C128.808 118.243 122.925 112.361 122.925 105.103C122.925 97.8443 128.808 91.963 136.068 91.963C143.328 91.963 149.21 97.8443 149.21 105.103ZM136.068 114.2C137.263 114.2 138.446 113.964 139.55 113.507C140.653 113.05 141.656 112.38 142.501 111.535C143.346 110.69 144.016 109.688 144.474 108.584C144.931 107.48 145.166 106.297 145.166 105.103C145.166 103.908 144.931 102.725 144.474 101.622C144.016 100.518 143.346 99.5151 142.501 98.6704C141.656 97.8257 140.653 97.1556 139.55 96.6985C138.446 96.2413 137.263 96.006 136.068 96.006C134.873 96.006 133.69 96.2413 132.586 96.6985C131.482 97.1556 130.479 97.8257 129.634 98.6704C128.789 99.5151 128.119 100.518 127.662 101.622C127.204 102.725 126.969 103.908 126.969 105.103C126.969 106.297 127.204 107.48 127.662 108.584C128.119 109.688 128.789 110.69 129.634 111.535C130.479 112.38 131.482 113.05 132.586 113.507C133.69 113.964 134.873 114.2 136.068 114.2Z" fill="url(#paint2_linear_239_37)"/>
<path d="M95.3249 143.259C85.0495 143.259 76.7128 134.942 76.7128 124.691C76.7128 116.594 81.9087 109.708 89.1467 107.168C89.1338 106.82 89.1209 106.472 89.1209 106.124C89.1209 94.7254 98.3752 85.4932 109.801 85.4932C117.466 85.4932 124.148 89.6451 127.728 95.8343C129.693 94.519 132.071 93.7454 134.617 93.7454C141.467 93.7454 147.025 99.2899 147.025 106.124C147.025 107.697 146.728 109.205 146.198 110.585C153.746 112.107 159.433 118.773 159.433 126.754C159.433 135.871 152.027 143.259 142.889 143.259H95.3249Z" fill="url(#paint3_linear_239_37)"/>
<path d="M149.21 105.103C149.21 108.002 148.269 110.681 146.683 112.854L154.682 120.858C155.472 121.648 155.472 122.93 154.682 123.72C153.892 124.509 152.609 124.509 151.82 123.72L143.82 115.716C141.647 117.308 138.968 118.243 136.068 118.243C128.808 118.243 122.925 112.361 122.925 105.103C122.925 97.8443 128.808 91.963 136.068 91.963C143.328 91.963 149.21 97.8443 149.21 105.103ZM136.068 114.2C137.263 114.2 138.446 113.964 139.55 113.507C140.653 113.05 141.656 112.38 142.501 111.535C143.346 110.69 144.016 109.688 144.474 108.584C144.931 107.48 145.166 106.297 145.166 105.103C145.166 103.908 144.931 102.725 144.474 101.622C144.016 100.518 143.346 99.5151 142.501 98.6704C141.656 97.8257 140.653 97.1556 139.55 96.6985C138.446 96.2413 137.263 96.006 136.068 96.006C134.873 96.006 133.69 96.2413 132.586 96.6985C131.482 97.1556 130.479 97.8257 129.634 98.6704C128.789 99.5151 128.119 100.518 127.662 101.622C127.204 102.725 126.969 103.908 126.969 105.103C126.969 106.297 127.204 107.48 127.662 108.584C128.119 109.688 128.789 110.69 129.634 111.535C130.479 112.38 131.482 113.05 132.586 113.507C133.69 113.964 134.873 114.2 136.068 114.2Z" fill="url(#paint4_linear_239_37)"/>
<path d="M128.37 97.1272C130.577 95.1515 132.893 94.1675 135.717 94.1675C142.536 94.0052 147.513 99.063 147.086 105.908C146.932 108.369 146.54 109.081 145.699 110.76" stroke="url(#paint5_linear_239_37)" stroke-width="10" stroke-linecap="round" stroke-linejoin="round"/>
<defs>
<filter id="filter0_b_239_37" x="-38" y="-38" width="312.608" height="312.608" filterUnits="userSpaceOnUse" color-interpolation-filters="sRGB">
<feFlood flood-opacity="0" result="BackgroundImageFix"/>
<feGaussianBlur in="BackgroundImageFix" stdDeviation="19"/>
<feComposite in2="SourceAlpha" operator="in" result="effect1_backgroundBlur_239_37"/>
<feBlend mode="normal" in="SourceGraphic" in2="effect1_backgroundBlur_239_37" result="shape"/>
</filter>
<linearGradient id="paint0_linear_239_37" x1="-7.16294" y1="-2.20521e-06" x2="236.608" y2="242.847" gradientUnits="userSpaceOnUse">
<stop offset="0.0250567" stop-color="#1DB954"/>
<stop offset="1"/>
</linearGradient>
<linearGradient id="paint1_linear_239_37" x1="92.194" y1="43.9019" x2="149.96" y2="186.005" gradientUnits="userSpaceOnUse">
<stop stop-color="#ACFFB4"/>
<stop offset="1" stop-color="#4BFF5D"/>
</linearGradient>
<linearGradient id="paint2_linear_239_37" x1="127.015" y1="96.239" x2="153.787" y2="123.754" gradientUnits="userSpaceOnUse">
<stop stop-color="white"/>
<stop offset="1" stop-color="#00A410"/>
</linearGradient>
<linearGradient id="paint3_linear_239_37" x1="97.9706" y1="92.6561" x2="159.433" y2="143.259" gradientUnits="userSpaceOnUse">
<stop stop-color="#9EFFC0"/>
<stop offset="1" stop-color="white"/>
</linearGradient>
<linearGradient id="paint4_linear_239_37" x1="127.015" y1="96.239" x2="153.787" y2="123.754" gradientUnits="userSpaceOnUse">
<stop stop-color="#63FF72"/>
<stop offset="0.618563" stop-color="#26C635"/>
<stop offset="1" stop-color="#00A310"/>
</linearGradient>
<linearGradient id="paint5_linear_239_37" x1="128.029" y1="96.6313" x2="145.405" y2="110.532" gradientUnits="userSpaceOnUse">
<stop stop-color="#00FF57"/>
<stop offset="1" stop-color="#9CFFBE"/>
</linearGradient>
</defs>
</svg>
